<mxfile host="app.diagrams.net" agent="Mozilla/5.0 (Windows NT 10.0; Win64; x64) AppleWebKit/537.36 (KHTML, like Gecko) Chrome/131.0.0.0 Safari/537.36 Edg/131.0.0.0" version="25.0.1">
  <diagram name="Страница — 1" id="FvC6Vreyyve-mrVfsEBs">
    <mxGraphModel dx="763" dy="421" grid="1" gridSize="10" guides="1" tooltips="1" connect="1" arrows="1" fold="1" page="1" pageScale="1" pageWidth="827" pageHeight="1169" math="0" shadow="0">
      <root>
        <mxCell id="0" />
        <mxCell id="1" parent="0" />
        <mxCell id="1AKhZKKFsO8g1e-0LNCf-1" value="" style="verticalLabelPosition=bottom;verticalAlign=top;html=1;shape=hexagon;perimeter=hexagonPerimeter2;arcSize=6;size=0.27;strokeWidth=2;fontFamily=Times New Roman;labelBackgroundColor=none;fontStyle=0;fontSize=14;fontColor=#000000;" parent="1" vertex="1">
          <mxGeometry x="320" y="240" width="120" height="80" as="geometry" />
        </mxCell>
        <mxCell id="1AKhZKKFsO8g1e-0LNCf-2" value="&lt;span lang=&quot;EN-US&quot; style=&quot;line-height: 150%;&quot;&gt;arr&lt;/span&gt;&lt;span lang=&quot;EN-US&quot; style=&quot;line-height: 150%;&quot;&gt;[&lt;/span&gt;&lt;span lang=&quot;EN-US&quot; style=&quot;line-height: 150%;&quot;&gt;i&lt;/span&gt;&lt;span lang=&quot;EN-US&quot; style=&quot;line-height: 150%;&quot;&gt;][&lt;/span&gt;&lt;span lang=&quot;EN-US&quot; style=&quot;line-height: 150%;&quot;&gt;j&lt;/span&gt;&lt;span lang=&quot;EN-US&quot; style=&quot;line-height: 150%;&quot;&gt;] = rand() % &lt;/span&gt;&lt;span lang=&quot;EN-US&quot; style=&quot;line-height: 150%;&quot;&gt;10&lt;/span&gt;" style="rounded=1;whiteSpace=wrap;html=1;absoluteArcSize=1;arcSize=14;strokeWidth=2;fontFamily=Times New Roman;labelBackgroundColor=none;fontStyle=0;fontSize=14;fontColor=#000000;" parent="1" vertex="1">
          <mxGeometry x="320" y="360" width="120" height="120" as="geometry" />
        </mxCell>
        <mxCell id="1AKhZKKFsO8g1e-0LNCf-3" value="1" style="verticalLabelPosition=middle;verticalAlign=middle;html=1;shape=mxgraph.flowchart.on-page_reference;strokeWidth=2;fontFamily=Times New Roman;labelBackgroundColor=none;fontStyle=0;fontSize=14;fontColor=#000000;labelPosition=center;align=center;" parent="1" vertex="1">
          <mxGeometry x="360" y="160" width="40" height="40" as="geometry" />
        </mxCell>
        <mxCell id="1AKhZKKFsO8g1e-0LNCf-4" value="3" style="verticalLabelPosition=middle;verticalAlign=middle;html=1;shape=mxgraph.flowchart.on-page_reference;strokeWidth=2;fontFamily=Times New Roman;labelBackgroundColor=none;fontStyle=0;fontSize=14;fontColor=#000000;labelPosition=center;align=center;" parent="1" vertex="1">
          <mxGeometry x="560" y="160" width="40" height="40" as="geometry" />
        </mxCell>
        <mxCell id="1AKhZKKFsO8g1e-0LNCf-5" value="2" style="verticalLabelPosition=middle;verticalAlign=middle;html=1;shape=mxgraph.flowchart.on-page_reference;strokeWidth=2;fontFamily=Times New Roman;labelBackgroundColor=none;fontStyle=0;fontSize=14;fontColor=#000000;labelPosition=center;align=center;" parent="1" vertex="1">
          <mxGeometry x="200" y="160" width="40" height="40" as="geometry" />
        </mxCell>
        <mxCell id="1AKhZKKFsO8g1e-0LNCf-6" value="4" style="verticalLabelPosition=middle;verticalAlign=middle;html=1;shape=mxgraph.flowchart.on-page_reference;strokeWidth=2;fontFamily=Times New Roman;labelBackgroundColor=none;fontStyle=0;fontSize=14;fontColor=#000000;labelPosition=center;align=center;" parent="1" vertex="1">
          <mxGeometry x="620" y="160" width="40" height="40" as="geometry" />
        </mxCell>
        <mxCell id="1AKhZKKFsO8g1e-0LNCf-7" value="output:&amp;nbsp;&lt;span lang=&quot;EN-US&quot; style=&quot;line-height: 24px;&quot;&gt;arr&lt;/span&gt;&lt;span lang=&quot;EN-US&quot; style=&quot;line-height: 18px;&quot;&gt;[&lt;/span&gt;&lt;span lang=&quot;EN-US&quot; style=&quot;line-height: 24px;&quot;&gt;i&lt;/span&gt;&lt;span lang=&quot;EN-US&quot; style=&quot;line-height: 24px;&quot;&gt;][&lt;/span&gt;&lt;span lang=&quot;EN-US&quot; style=&quot;line-height: 24px;&quot;&gt;j&lt;/span&gt;&lt;span lang=&quot;EN-US&quot; style=&quot;line-height: 24px;&quot;&gt;]&lt;/span&gt;" style="shape=parallelogram;html=1;strokeWidth=2;perimeter=parallelogramPerimeter;whiteSpace=wrap;rounded=1;arcSize=12;size=0.23;fontFamily=Times New Roman;labelBackgroundColor=none;fontStyle=0;fontSize=14;fontColor=#000000;" parent="1" vertex="1">
          <mxGeometry x="320" y="520" width="120" height="80" as="geometry" />
        </mxCell>
        <mxCell id="1AKhZKKFsO8g1e-0LNCf-8" value="&lt;span lang=&quot;EN-US&quot; style=&quot;line-height: 24px;&quot;&gt;arr&lt;/span&gt;&lt;span lang=&quot;EN-US&quot; style=&quot;line-height: 18px;&quot;&gt;[&lt;/span&gt;&lt;span lang=&quot;EN-US&quot; style=&quot;line-height: 24px;&quot;&gt;i&lt;/span&gt;&lt;span lang=&quot;EN-US&quot; style=&quot;line-height: 24px;&quot;&gt;][&lt;/span&gt;&lt;span lang=&quot;EN-US&quot; style=&quot;line-height: 24px;&quot;&gt;j&lt;/span&gt;&lt;span lang=&quot;EN-US&quot; style=&quot;line-height: 24px;&quot;&gt;]&lt;/span&gt;&lt;span lang=&quot;EN-US&quot; style=&quot;line-height: 150%;&quot;&gt;&amp;nbsp;&amp;gt; &lt;/span&gt;&lt;span lang=&quot;EN-US&quot; style=&quot;line-height: 150%;&quot;&gt;max&lt;/span&gt;" style="strokeWidth=2;html=1;shape=mxgraph.flowchart.decision;whiteSpace=wrap;fontFamily=Times New Roman;labelBackgroundColor=none;fontStyle=0;fontSize=14;fontColor=#000000;" parent="1" vertex="1">
          <mxGeometry x="320" y="640" width="120" height="120" as="geometry" />
        </mxCell>
        <mxCell id="1AKhZKKFsO8g1e-0LNCf-9" value="&lt;span style=&quot;line-height: 150%;&quot; lang=&quot;EN-US&quot;&gt;max &lt;/span&gt;&lt;span style=&quot;line-height: 150%;&quot; lang=&quot;EN-US&quot;&gt;= &lt;/span&gt;&lt;span style=&quot;line-height: 150%;&quot; lang=&quot;EN-US&quot;&gt;arr&lt;/span&gt;&lt;span style=&quot;line-height: 150%;&quot; lang=&quot;EN-US&quot;&gt;[&lt;/span&gt;&lt;span style=&quot;line-height: 150%;&quot; lang=&quot;EN-US&quot;&gt;i&lt;/span&gt;&lt;span style=&quot;line-height: 150%;&quot; lang=&quot;EN-US&quot;&gt;][&lt;/span&gt;&lt;span style=&quot;line-height: 150%;&quot; lang=&quot;EN-US&quot;&gt;j&lt;/span&gt;&lt;span style=&quot;line-height: 150%;&quot; lang=&quot;EN-US&quot;&gt;]&lt;/span&gt;" style="rounded=1;whiteSpace=wrap;html=1;absoluteArcSize=1;arcSize=14;strokeWidth=2;fontFamily=Times New Roman;labelBackgroundColor=none;fontStyle=0;fontSize=14;fontColor=#000000;" parent="1" vertex="1">
          <mxGeometry x="320" y="800" width="120" height="120" as="geometry" />
        </mxCell>
        <mxCell id="1AKhZKKFsO8g1e-0LNCf-10" value="" style="endArrow=classic;html=1;rounded=0;exitX=0.5;exitY=1;exitDx=0;exitDy=0;exitPerimeter=0;entryX=0.5;entryY=0;entryDx=0;entryDy=0;fontFamily=Times New Roman;labelBackgroundColor=none;fontStyle=0;fontSize=14;fontColor=#000000;" parent="1" source="1AKhZKKFsO8g1e-0LNCf-3" target="1AKhZKKFsO8g1e-0LNCf-1" edge="1">
          <mxGeometry width="50" height="50" relative="1" as="geometry">
            <mxPoint x="60" y="470" as="sourcePoint" />
            <mxPoint x="110" y="420" as="targetPoint" />
          </mxGeometry>
        </mxCell>
        <mxCell id="1AKhZKKFsO8g1e-0LNCf-11" value="" style="endArrow=classic;html=1;rounded=0;exitX=0.5;exitY=1;exitDx=0;exitDy=0;entryX=0.5;entryY=0;entryDx=0;entryDy=0;fontFamily=Times New Roman;labelBackgroundColor=none;fontStyle=0;fontSize=14;fontColor=#000000;" parent="1" source="1AKhZKKFsO8g1e-0LNCf-1" target="1AKhZKKFsO8g1e-0LNCf-2" edge="1">
          <mxGeometry width="50" height="50" relative="1" as="geometry">
            <mxPoint x="390" y="210" as="sourcePoint" />
            <mxPoint x="390" y="250" as="targetPoint" />
          </mxGeometry>
        </mxCell>
        <mxCell id="1AKhZKKFsO8g1e-0LNCf-12" value="" style="endArrow=classic;html=1;rounded=0;exitX=0.5;exitY=1;exitDx=0;exitDy=0;entryX=0.5;entryY=0;entryDx=0;entryDy=0;fontFamily=Times New Roman;labelBackgroundColor=none;fontStyle=0;fontSize=14;fontColor=#000000;" parent="1" source="1AKhZKKFsO8g1e-0LNCf-2" target="1AKhZKKFsO8g1e-0LNCf-7" edge="1">
          <mxGeometry width="50" height="50" relative="1" as="geometry">
            <mxPoint x="390" y="330" as="sourcePoint" />
            <mxPoint x="390" y="370" as="targetPoint" />
          </mxGeometry>
        </mxCell>
        <mxCell id="1AKhZKKFsO8g1e-0LNCf-13" value="" style="endArrow=classic;html=1;rounded=0;exitX=0.5;exitY=1;exitDx=0;exitDy=0;entryX=0.5;entryY=0;entryDx=0;entryDy=0;entryPerimeter=0;fontFamily=Times New Roman;labelBackgroundColor=none;fontStyle=0;fontSize=14;fontColor=#000000;" parent="1" source="1AKhZKKFsO8g1e-0LNCf-7" target="1AKhZKKFsO8g1e-0LNCf-8" edge="1">
          <mxGeometry width="50" height="50" relative="1" as="geometry">
            <mxPoint x="390" y="490" as="sourcePoint" />
            <mxPoint x="390" y="530" as="targetPoint" />
          </mxGeometry>
        </mxCell>
        <mxCell id="1AKhZKKFsO8g1e-0LNCf-14" value="" style="endArrow=classic;html=1;rounded=0;entryX=0.5;entryY=0;entryDx=0;entryDy=0;exitX=0.5;exitY=1;exitDx=0;exitDy=0;exitPerimeter=0;fontFamily=Times New Roman;labelBackgroundColor=none;fontStyle=0;fontSize=14;fontColor=#000000;" parent="1" source="1AKhZKKFsO8g1e-0LNCf-8" target="1AKhZKKFsO8g1e-0LNCf-9" edge="1">
          <mxGeometry width="50" height="50" relative="1" as="geometry">
            <mxPoint x="380" y="774" as="sourcePoint" />
            <mxPoint x="390" y="650" as="targetPoint" />
          </mxGeometry>
        </mxCell>
        <mxCell id="1AKhZKKFsO8g1e-0LNCf-18" value="" style="endArrow=classic;html=1;rounded=0;exitX=0.5;exitY=0;exitDx=0;exitDy=0;exitPerimeter=0;entryX=0;entryY=0.5;entryDx=0;entryDy=0;fontFamily=Times New Roman;labelBackgroundColor=none;fontStyle=0;fontSize=14;fontColor=#000000;" parent="1" target="1AKhZKKFsO8g1e-0LNCf-1" edge="1">
          <mxGeometry width="50" height="50" relative="1" as="geometry">
            <mxPoint x="280" y="960" as="sourcePoint" />
            <mxPoint x="270" y="360" as="targetPoint" />
            <Array as="points">
              <mxPoint x="280" y="280" />
            </Array>
          </mxGeometry>
        </mxCell>
        <mxCell id="1AKhZKKFsO8g1e-0LNCf-19" value="" style="endArrow=classic;html=1;rounded=0;exitX=1;exitY=0.5;exitDx=0;exitDy=0;exitPerimeter=0;fontFamily=Times New Roman;labelBackgroundColor=none;fontStyle=0;fontSize=14;fontColor=#000000;" parent="1" source="1AKhZKKFsO8g1e-0LNCf-8" edge="1">
          <mxGeometry width="50" height="50" relative="1" as="geometry">
            <mxPoint x="390" y="770" as="sourcePoint" />
            <mxPoint x="380" y="940" as="targetPoint" />
            <Array as="points">
              <mxPoint x="480" y="700" />
              <mxPoint x="480" y="940" />
              <mxPoint x="380" y="940" />
            </Array>
          </mxGeometry>
        </mxCell>
        <mxCell id="1AKhZKKFsO8g1e-0LNCf-20" value="5" style="verticalLabelPosition=middle;verticalAlign=middle;html=1;shape=mxgraph.flowchart.on-page_reference;strokeWidth=2;fontFamily=Times New Roman;labelBackgroundColor=none;fontStyle=0;fontSize=14;fontColor=#000000;labelPosition=center;align=center;" parent="1" vertex="1">
          <mxGeometry x="500" y="960" width="40" height="40" as="geometry" />
        </mxCell>
        <mxCell id="1AKhZKKFsO8g1e-0LNCf-21" value="" style="endArrow=classic;html=1;rounded=0;exitX=1;exitY=0.5;exitDx=0;exitDy=0;entryX=0.5;entryY=0;entryDx=0;entryDy=0;entryPerimeter=0;fontFamily=Times New Roman;labelBackgroundColor=none;fontStyle=0;fontSize=14;fontColor=#000000;" parent="1" source="1AKhZKKFsO8g1e-0LNCf-1" target="1AKhZKKFsO8g1e-0LNCf-20" edge="1">
          <mxGeometry width="50" height="50" relative="1" as="geometry">
            <mxPoint x="390" y="330" as="sourcePoint" />
            <mxPoint x="390" y="370" as="targetPoint" />
            <Array as="points">
              <mxPoint x="520" y="280" />
            </Array>
          </mxGeometry>
        </mxCell>
        <mxCell id="1AKhZKKFsO8g1e-0LNCf-22" value="2" style="verticalLabelPosition=middle;verticalAlign=middle;html=1;shape=mxgraph.flowchart.on-page_reference;strokeWidth=2;fontFamily=Times New Roman;labelBackgroundColor=none;fontStyle=0;fontSize=14;fontColor=#000000;labelPosition=center;align=center;" parent="1" vertex="1">
          <mxGeometry x="200" y="960" width="40" height="40" as="geometry" />
        </mxCell>
        <mxCell id="1AKhZKKFsO8g1e-0LNCf-23" value="" style="endArrow=classic;html=1;rounded=0;exitX=0.5;exitY=0;exitDx=0;exitDy=0;exitPerimeter=0;entryX=0.5;entryY=1;entryDx=0;entryDy=0;entryPerimeter=0;fontFamily=Times New Roman;labelBackgroundColor=none;fontStyle=0;fontSize=14;fontColor=#000000;" parent="1" source="1AKhZKKFsO8g1e-0LNCf-22" target="1AKhZKKFsO8g1e-0LNCf-5" edge="1">
          <mxGeometry width="50" height="50" relative="1" as="geometry">
            <mxPoint x="390" y="770" as="sourcePoint" />
            <mxPoint x="230" y="750" as="targetPoint" />
          </mxGeometry>
        </mxCell>
        <mxCell id="1AKhZKKFsO8g1e-0LNCf-24" value="3" style="verticalLabelPosition=middle;verticalAlign=middle;html=1;shape=mxgraph.flowchart.on-page_reference;strokeWidth=2;fontFamily=Times New Roman;labelBackgroundColor=none;fontStyle=0;fontSize=14;fontColor=#000000;labelPosition=center;align=center;" parent="1" vertex="1">
          <mxGeometry x="560" y="960" width="40" height="40" as="geometry" />
        </mxCell>
        <mxCell id="1AKhZKKFsO8g1e-0LNCf-25" value="4" style="verticalLabelPosition=middle;verticalAlign=middle;html=1;shape=mxgraph.flowchart.on-page_reference;strokeWidth=2;fontFamily=Times New Roman;labelBackgroundColor=none;fontStyle=0;fontSize=14;fontColor=#000000;labelPosition=center;align=center;" parent="1" vertex="1">
          <mxGeometry x="620" y="960" width="40" height="40" as="geometry" />
        </mxCell>
        <mxCell id="1AKhZKKFsO8g1e-0LNCf-26" value="" style="endArrow=classic;html=1;rounded=0;exitX=0.5;exitY=1;exitDx=0;exitDy=0;entryX=0.5;entryY=0;entryDx=0;entryDy=0;exitPerimeter=0;entryPerimeter=0;fontFamily=Times New Roman;labelBackgroundColor=none;fontStyle=0;fontSize=14;fontColor=#000000;" parent="1" source="1AKhZKKFsO8g1e-0LNCf-4" target="1AKhZKKFsO8g1e-0LNCf-24" edge="1">
          <mxGeometry width="50" height="50" relative="1" as="geometry">
            <mxPoint x="390" y="490" as="sourcePoint" />
            <mxPoint x="390" y="530" as="targetPoint" />
          </mxGeometry>
        </mxCell>
        <mxCell id="1AKhZKKFsO8g1e-0LNCf-27" value="" style="endArrow=classic;html=1;rounded=0;exitX=0.5;exitY=1;exitDx=0;exitDy=0;entryX=0.5;entryY=0;entryDx=0;entryDy=0;exitPerimeter=0;entryPerimeter=0;fontFamily=Times New Roman;labelBackgroundColor=none;fontStyle=0;fontSize=14;fontColor=#000000;" parent="1" source="1AKhZKKFsO8g1e-0LNCf-6" target="1AKhZKKFsO8g1e-0LNCf-25" edge="1">
          <mxGeometry width="50" height="50" relative="1" as="geometry">
            <mxPoint x="570" y="210" as="sourcePoint" />
            <mxPoint x="590" y="970" as="targetPoint" />
          </mxGeometry>
        </mxCell>
        <mxCell id="1AKhZKKFsO8g1e-0LNCf-28" value="&lt;span lang=&quot;EN-US&quot; style=&quot;line-height: 150%;&quot;&gt;j &lt;/span&gt;&lt;span lang=&quot;EN-US&quot; style=&quot;line-height: 150%;&quot;&gt;= &lt;/span&gt;&lt;span lang=&quot;EN-US&quot; style=&quot;line-height: 150%;&quot;&gt;0&lt;/span&gt;&lt;span lang=&quot;EN-US&quot; style=&quot;line-height: 150%;&quot;&gt;; &lt;/span&gt;&lt;span lang=&quot;EN-US&quot; style=&quot;line-height: 150%;&quot;&gt;j &lt;/span&gt;&lt;span lang=&quot;EN-US&quot; style=&quot;line-height: 150%;&quot;&gt;&amp;lt; n&lt;/span&gt;&lt;span lang=&quot;EN-US&quot; style=&quot;line-height: 150%;&quot;&gt;;&lt;/span&gt;&lt;div&gt;&lt;span lang=&quot;EN-US&quot; style=&quot;line-height: 150%;&quot;&gt;j&lt;/span&gt;&lt;span lang=&quot;EN-US&quot; style=&quot;line-height: 150%;&quot;&gt;++&lt;/span&gt;&lt;/div&gt;" style="text;html=1;align=center;verticalAlign=middle;whiteSpace=wrap;rounded=0;fontFamily=Times New Roman;labelBackgroundColor=none;fontStyle=0;fontSize=14;fontColor=#000000;" parent="1" vertex="1">
          <mxGeometry x="320" y="240" width="120" height="80" as="geometry" />
        </mxCell>
        <mxCell id="IMi5X4ly5cJ2ttZTJNXY-1" value="" style="endArrow=none;html=1;rounded=0;entryX=0.5;entryY=1;entryDx=0;entryDy=0;" edge="1" parent="1" target="1AKhZKKFsO8g1e-0LNCf-9">
          <mxGeometry width="50" height="50" relative="1" as="geometry">
            <mxPoint x="280" y="960" as="sourcePoint" />
            <mxPoint x="350" y="870" as="targetPoint" />
            <Array as="points">
              <mxPoint x="380" y="960" />
            </Array>
          </mxGeometry>
        </mxCell>
      </root>
    </mxGraphModel>
  </diagram>
</mxfile>
